<svg xmlns="http://www.w3.org/2000/svg" viewBox="0 0 512 512">
	<defs>
		<style>
			#user {
				stroke: white;
				stroke-width: 20;
				stroke-linejoin: round;
			}
			
			#frame {
				fill: hsl(0, 100%, 66%);
				stroke: white;
				stroke-width: 30;
			}
		</style>
	</defs>

	<rect width="480" height="480" x="16" y="16" rx="128" ry="128" fill="hsl(40, 90%, 66%)" stroke="hsl(40, 90%, 60%)" stroke-width="16" />
	
	<g transform="translate(256, 256) scale(0.8) rotate(10) translate(-256, -256)">
		<g id="frame">
			<rect x="32" y="40" width="440" height="440" />
		</g>

		<g id="user" transform="translate(256, 256) scale(1) translate(-256, -256)">
			<g transform="translate(50, 50)">
				<path d="M391.113, 426.667H35.554v-88.892c0-22.746, 8.678-45.495, 26.039-62.848 c17.353-17.357, 40.102-26.039, 62.848-26.039h177.783c22.75, 0, 45.495, 8.678, 62.852, 26.039 c17.353, 17.353, 26.035, 40.102, 26.035, 62.848V426.667z"/>
				<circle cx="215" cy="135" r="110"/>
			</g>
		</g>

		<g id="frame">
			<rect x="32" y="30" width="440" height="440" fill="none" />
		</g>
	</g>
</svg>